<?xml version="1.0" encoding="iso-8859-1"?>
<!-- Generator: Adobe Illustrator 19.0.0, SVG Export Plug-In . SVG Version: 6.00 Build 0)  -->
<svg version="1.1" id="Layer_1" xmlns="http://www.w3.org/2000/svg" xmlns:xlink="http://www.w3.org/1999/xlink" x="0px" y="0px"
	 viewBox="0 0 512 512" style="enable-background:new 0 0 512 512;" xml:space="preserve">
<g>
	<g>
		<path d="M150.261,345.044H83.478c-9.22,0-16.696,7.475-16.696,16.696v66.783c0,9.22,7.475,16.696,16.696,16.696h66.783
			c9.22,0,16.696-7.475,16.696-16.696v-66.783C166.957,352.519,159.481,345.044,150.261,345.044z M133.565,411.826h-33.391v-33.391
			h33.391V411.826z"/>
	</g>
</g>
<g>
	<g>
		<path d="M283.826,345.044h-66.783c-9.22,0-16.696,7.475-16.696,16.696v66.783c0,9.22,7.475,16.696,16.696,16.696h66.783
			c9.22,0,16.696-7.475,16.696-16.696v-66.783C300.522,352.519,293.047,345.044,283.826,345.044z M267.13,411.826h-33.391v-33.391
			h33.391V411.826z"/>
	</g>
</g>
<g>
	<g>
		<path d="M511.773,214.299L478.382,13.951C477.04,5.9,470.075,0,461.913,0H384c-8.162,0-15.127,5.9-16.469,13.951l-31.066,186.397
			h-12.333l-95.283-95.283c-10.469-10.47-28.502-3.06-28.502,11.805v59.867l-71.673-71.672
			c-10.469-10.473-28.501-3.06-28.501,11.805v59.867l-71.673-71.672C18.032,94.594,0,102.005,0,116.87v378.435
			C0,504.525,7.475,512,16.696,512c7.791,0,470.982,0,478.609,0c9.22,0,16.696-7.475,16.696-16.696V217.044
			C512,216.172,511.864,214.851,511.773,214.299z M398.143,33.391h49.626l5.565,33.391h-60.757L398.143,33.391z M387.013,100.174
			H458.9l5.565,33.391h-83.017L387.013,100.174z M375.883,166.957h94.148l5.565,33.391H370.317L375.883,166.957z M411.826,478.609
			h-44.522V378.435h44.522V478.609z M478.609,478.609h-33.391v-116.87c0-9.22-7.475-16.696-16.696-16.696h-77.913
			c-9.22,0-16.696,7.475-16.696,16.696v116.87H33.391V311.652h445.217V478.609z M478.609,278.261H33.391V157.176l71.673,71.672
			c10.47,10.472,28.501,3.06,28.501-11.805v-59.867l71.673,71.672c10.469,10.472,28.501,3.059,28.501-11.805v-59.867l71.673,71.672
			c3.13,3.131,7.376,4.891,11.805,4.891h161.391V278.261z"/>
	</g>
</g>
<g>
	<g>
		<path d="M329.461,20.766c-6.881-6.157-17.435-5.56-23.565,1.305c-12.11,13.515-27.58,15.557-41.913,0
			c-26.076-29.214-65.195-29.64-91.652,0c-6.152,6.87-5.576,17.424,1.304,23.576c6.87,6.163,17.424,5.56,23.565-1.305
			c12.11-13.515,27.58-15.557,41.913,0c26.076,29.214,65.195,29.64,91.652,0C336.917,37.473,336.342,26.919,329.461,20.766z"/>
	</g>
</g>
<g>
</g>
<g>
</g>
<g>
</g>
<g>
</g>
<g>
</g>
<g>
</g>
<g>
</g>
<g>
</g>
<g>
</g>
<g>
</g>
<g>
</g>
<g>
</g>
<g>
</g>
<g>
</g>
<g>
</g>
</svg>
