<?xml version="1.0" encoding="iso-8859-1"?>
<!-- Generator: Adobe Illustrator 19.0.0, SVG Export Plug-In . SVG Version: 6.00 Build 0)  -->
<svg version="1.1" id="Layer_1" xmlns="http://www.w3.org/2000/svg" xmlns:xlink="http://www.w3.org/1999/xlink" x="0px" y="0px"
	 viewBox="0 0 489.2 489.2" style="enable-background:new 0 0 489.2 489.2;" xml:space="preserve">
<g>
	<g>
		<path d="M449.8,21.2H39.7C17.9,21.2,0,39.1,0,60.9v277.2c0,21.8,17.9,39.7,39.7,39.7h160.7v44.1h-31.2c-5,0-9.4,4-9.4,9.4v27.3
			c0,5,4,9.4,9.4,9.4H320c5,0,9.4-4,9.4-9.4v-27.3c0-5-4-9.4-9.4-9.4h-31.2v-44.1h160.7c21.8,0,39.7-17.9,39.7-39.7V60.9
			C489,39.5,471.1,21.7,449.8,21.2z M435.5,323.2h-0.1H54.1v-248H435h0.5V323.2z"/>
	</g>
</g>
<g>
	<g>
		<path d="M384.8,242.4H365c-3-16.4-9.4-31.2-18.3-44.6l14.4-14.4c5.5-5,5.5-13.4,0-18.8l-15.4-15.4c-5-5.5-13.4-5.5-18.8,0
			l-14.4,14.4c-13.4-8.9-28.3-15.4-44.6-18.3v-19.8c0-7.4-6-13.4-13.4-13.4h-21.3c-7.4,0-13.4,6-13.4,13.4v19.8
			c-16.4,3-31.2,9.4-44.6,18.3l-14.4-14.4c-5-5.5-13.4-5.5-18.8,0l-15.5,15.3c-5.5,5-5.5,13.4,0,18.8l14.4,14.4
			c-8.9,13.4-15.4,28.3-18.3,44.6h-19.8c-7.4,0-13.4,6-13.4,13.4V277c0,7.4,6,13.4,12.9,13.4h5h15.2h63v-24.3c0-32.7,26.3-59,59-59
			s59,26.3,59,59v24.3H365h19.8c7.4,0,13.4-6,13.4-13.4v-21.3C398.2,248.3,392.3,242.4,384.8,242.4z"/>
	</g>
</g>
<g>
</g>
<g>
</g>
<g>
</g>
<g>
</g>
<g>
</g>
<g>
</g>
<g>
</g>
<g>
</g>
<g>
</g>
<g>
</g>
<g>
</g>
<g>
</g>
<g>
</g>
<g>
</g>
<g>
</g>
</svg>
